<svg version="1.2" xmlns="http://www.w3.org/2000/svg" viewBox="0 0 33 32" width="33" height="32">
	<title>Send-svg</title>
	<style>
		.s0 { fill: #f6b825 } 
	</style>
	<path id="Layer" class="s0" d="m31.5 0.9c-0.8-0.8-2-1.1-3.1-0.8l-25.7 7.5c-1.2 0.3-2 1.3-2.3 2.4-0.2 1.3 0.6 2.8 1.6 3.4l8.1 5c0.8 0.5 1.9 0.3 2.6-0.3l9.2-9.3c0.5-0.5 1.2-0.5 1.7 0 0.5 0.4 0.5 1.2 0 1.7l-9.2 9.3c-0.7 0.7-0.9 1.7-0.4 2.6l5 8.1c0.5 1 1.5 1.5 2.6 1.5q0.2 0 0.4 0c1.3-0.2 2.3-1 2.6-2.2l7.7-25.8c0.3-1.1 0-2.2-0.8-3.1z"/>
</svg>