<svg version="1.2" xmlns="http://www.w3.org/2000/svg" viewBox="0 0 28 32" width="28" height="32">
	<title>Shield-svg</title>
	<style>
		.s0 { fill: #f6b825 } 
	</style>
	<path id="Layer" fill-rule="evenodd" class="s0" d="m7.8 28.9c-1.6-0.9-2.9-1.8-3.9-2.9-2.2-2.4-3.4-5.6-3.4-8.8l-0.1-10.6c0-1.2 0.8-2.3 2-2.7l10.5-3.7c0.7-0.3 1.4-0.3 2 0l10.6 3.5c1.2 0.4 2 1.5 2 2.7l0.1 10.7c0 3.2-1.2 6.3-3.3 8.8-1 1.1-2.3 2-3.9 2.9l-5.7 3.1q-0.3 0.1-0.6 0.1-0.3 0-0.5-0.1zm4.2-9.5c0.3 0.2 0.6 0.3 0.9 0.3 0.3 0 0.6-0.1 0.8-0.4l6.3-6.1c0.4-0.5 0.4-1.2 0-1.7-0.5-0.4-1.3-0.4-1.8 0l-5.3 5.4-2.3-2.2c-0.4-0.4-1.2-0.4-1.7 0-0.4 0.5-0.4 1.2 0.1 1.7z"/>
</svg>