<svg version="1.2" xmlns="http://www.w3.org/2000/svg" viewBox="0 0 33 32" width="33" height="32">
	<title>Star-svg</title>
	<style>
		.s0 { fill: #f6b825 } 
	</style>
	<path id="Layer" class="s0" d="m25.5 19.7c-0.4 0.4-0.6 1-0.5 1.6l1.4 7.8c0.1 0.7-0.2 1.4-0.7 1.8-0.6 0.4-1.3 0.4-1.9 0.1l-7.1-3.7q-0.4-0.2-0.8-0.2h-0.4q-0.3 0-0.5 0.1l-7.1 3.7q-0.5 0.3-1.1 0.2c-0.9-0.2-1.6-1.1-1.4-2l1.4-7.9c0.1-0.6-0.1-1.1-0.5-1.6l-5.8-5.6c-0.5-0.4-0.6-1.1-0.4-1.8 0.2-0.6 0.8-1.1 1.4-1.2l8-1.1c0.6-0.1 1.1-0.4 1.4-1l3.5-7.2q0.1-0.2 0.3-0.4l0.1-0.1q0.2-0.1 0.3-0.2l0.2-0.1 0.2-0.1h0.7c0.6 0.1 1.2 0.4 1.4 1l3.6 7.1c0.2 0.5 0.7 0.9 1.3 1l8 1.1c0.6 0.1 1.2 0.6 1.4 1.2 0.2 0.7 0 1.4-0.4 1.8z"/>
</svg>